<svg width="695" height="108" viewBox="0 0 695 108" fill="none" xmlns="http://www.w3.org/2000/svg">
<path d="M343.566 0L337.123 2.02412L342.197 18.1835L348.64 16.1594L343.566 0Z" fill="black"/>
<path d="M327.945 8.68498L322.643 12.8725L332.058 24.8485L337.36 20.661L327.945 8.68498Z" fill="black"/>
<path d="M317.096 20.4644L313 25.8436L323.743 34.0756L327.839 28.6964L317.096 20.4644Z" fill="black"/>
<path d="M362.036 0.66272L355.292 0.259592L354.414 15.4695L361.157 15.8726L362.036 0.66272Z" fill="black"/>
<path d="M378.045 6.58165L371.682 4.29707L367.147 17.0498L373.51 19.3344L378.045 6.58165Z" fill="black"/>
<path d="M0.666748 85.9999V23.4999H21.9167C26.9167 23.4999 31.4538 24.3101 35.5279 25.9305C39.6482 27.5509 43.1899 29.7962 46.1529 32.6666C49.1621 35.4907 51.4769 38.8009 53.0973 42.5972C54.7177 46.3935 55.5279 50.4444 55.5279 54.7499C55.5279 59.0555 54.7177 63.1064 53.0973 66.9027C51.4769 70.699 49.1621 74.0324 46.1529 76.9027C43.1899 79.7268 39.6482 81.949 35.5279 83.5694C31.4538 85.1898 26.9167 85.9999 21.9167 85.9999H0.666748ZM12.7501 74.7499H20.8056C24.3242 74.7499 27.426 74.2407 30.1112 73.2222C32.7964 72.1574 35.0417 70.7222 36.8473 68.9166C38.6992 67.0648 40.088 64.9351 41.014 62.5277C41.9862 60.1203 42.4723 57.5277 42.4723 54.7499C42.4723 51.9722 41.9862 49.3796 41.014 46.9722C40.088 44.5185 38.6992 42.3888 36.8473 40.5833C35.0417 38.7314 32.7964 37.2962 30.1112 36.2777C27.426 35.2592 24.3242 34.75 20.8056 34.75H12.7501V74.7499Z" fill="black"/>
<path d="M85.415 87.3888C80.7391 87.3888 76.6187 86.4166 73.0539 84.4722C69.4891 82.5277 66.7113 79.8657 64.7206 76.4861C62.7298 73.0601 61.7345 69.1481 61.7345 64.7499C61.7345 60.537 62.7067 56.8101 64.6511 53.5694C66.5956 50.2824 69.2113 47.6898 72.4983 45.7916C75.8317 43.8935 79.5122 42.9444 83.54 42.9444C87.6604 42.9444 91.3409 43.8935 94.5817 45.7916C97.8224 47.6435 100.369 50.1898 102.221 53.4305C104.119 56.6712 105.068 60.3518 105.068 64.4722V68.7083H79.6511C78.4937 68.7083 77.3826 68.6388 76.3178 68.4999C75.253 68.3611 74.1882 68.199 73.1233 68.0138C73.6789 70.7916 75.0446 73.0601 77.2206 74.8194C79.4428 76.5324 82.2669 77.3888 85.6928 77.3888C88.3317 77.3888 90.6928 76.8564 92.7761 75.7916C94.9058 74.7268 96.6419 73.4074 97.9845 71.8333L100.623 82.6666C98.54 84.2407 96.1789 85.4212 93.54 86.2083C90.9474 86.9953 88.2391 87.3888 85.415 87.3888ZM72.8456 60.7222C75.1604 60.2129 77.4289 59.9583 79.6511 59.9583H87.0122C88.3085 59.9583 89.5354 60.0046 90.6928 60.0972C91.8502 60.1898 92.9382 60.3518 93.9567 60.5833C93.2622 58.0833 91.9891 56.1157 90.1372 54.6805C88.3317 53.2453 86.0863 52.5277 83.4011 52.5277C80.8548 52.5277 78.6326 53.2685 76.7345 54.7499C74.8826 56.1851 73.5863 58.1759 72.8456 60.7222Z" fill="black"/>
<path d="M150.693 87.3888C146.896 87.3888 143.285 86.6944 139.859 85.3055C136.48 83.8703 133.771 82.1574 131.734 80.1666L135.137 66.2777C136.758 69.1018 139.049 71.4629 142.012 73.3611C144.975 75.2129 148.008 76.1388 151.109 76.1388C153.656 76.1388 155.646 75.4444 157.082 74.0555C158.563 72.6666 159.304 70.9768 159.304 68.9861C159.304 67.3657 158.91 66.0231 158.123 64.9583C157.383 63.8935 156.48 63.0138 155.415 62.3194C154.396 61.6249 153.494 61.0925 152.707 60.7222L145.346 57.0416C143.216 55.9768 141.179 54.7268 139.234 53.2916C137.29 51.8101 135.693 49.9814 134.443 47.8055C133.239 45.6296 132.637 42.9444 132.637 39.7499C132.637 36.2314 133.424 33.1527 134.998 30.5138C136.619 27.8749 138.887 25.8148 141.804 24.3333C144.721 22.8518 148.146 22.1111 152.082 22.1111C155.785 22.1111 159.072 22.7129 161.943 23.9166C164.859 25.074 167.221 26.324 169.026 27.6666L165.832 41.2083C163.98 38.8009 161.758 36.8796 159.165 35.4444C156.619 33.9629 154.072 33.2222 151.526 33.2222C149.258 33.2222 147.498 33.8009 146.248 34.9583C145.045 36.1157 144.443 37.5509 144.443 39.2638C144.443 40.3287 144.674 41.2777 145.137 42.1111C145.646 42.9444 146.364 43.6851 147.29 44.3333C148.216 44.9814 149.304 45.6296 150.554 46.2777L157.984 49.9583C159.234 50.5601 160.6 51.3472 162.082 52.3194C163.563 53.2453 164.998 54.4259 166.387 55.8611C167.776 57.2962 168.91 59.0324 169.79 61.0694C170.67 63.0601 171.109 65.4444 171.109 68.2222C171.109 71.8333 170.276 75.0972 168.609 78.0138C166.943 80.8842 164.582 83.1759 161.526 84.8888C158.517 86.5555 154.906 87.3888 150.693 87.3888Z" fill="black"/>
<path d="M178.369 85.9999V44.3333H189.202V48.9166C190.683 46.9722 192.512 45.4907 194.688 44.4722C196.91 43.4537 199.225 42.9444 201.632 42.9444C204.086 42.9444 206.401 43.4537 208.577 44.4722C210.753 45.4907 212.582 46.9722 214.063 48.9166C215.683 46.9722 217.697 45.4907 220.105 44.4722C222.512 43.4537 225.128 42.9444 227.952 42.9444C230.915 42.9444 233.693 43.6388 236.285 45.0277C238.878 46.3703 240.984 48.3611 242.605 51C244.225 53.5925 245.035 56.7638 245.035 60.5138V85.9999H232.952V62.2499C232.952 60.0277 232.304 58.0601 231.007 56.3472C229.711 54.6342 227.836 53.7777 225.382 53.7777C224.086 53.7777 222.836 54.1018 221.632 54.7499C220.475 55.3518 219.526 56.2777 218.785 57.5277C218.091 58.7314 217.744 60.2592 217.744 62.1111V85.9999H205.66V62.2499C205.66 60.7685 205.359 59.3796 204.757 58.0833C204.202 56.787 203.345 55.7453 202.188 54.9583C201.077 54.1712 199.711 53.7777 198.091 53.7777C196.794 53.7777 195.544 54.1018 194.341 54.7499C193.183 55.3518 192.234 56.2777 191.494 57.5277C190.799 58.7314 190.452 60.2592 190.452 62.1111V85.9999H178.369Z" fill="black"/>
<path d="M272.119 87.1111C268.276 87.1111 264.781 86.1157 261.632 84.1249C258.484 82.1342 255.961 79.4953 254.063 76.2083C252.211 72.8749 251.285 69.1944 251.285 65.1666C251.285 61.1388 252.211 57.4583 254.063 54.125C255.961 50.7916 258.484 48.1527 261.632 46.2083C264.781 44.2175 268.276 43.2222 272.119 43.2222C274.804 43.2222 277.257 43.7083 279.48 44.6805C281.702 45.6064 283.6 46.9027 285.174 48.5694V44.3333H295.591V85.9999H285.174V81.7638C283.6 83.4305 281.702 84.7499 279.48 85.7222C277.257 86.6481 274.804 87.1111 272.119 87.1111ZM273.577 76.4861C275.614 76.4861 277.466 75.9768 279.132 74.9583C280.799 73.9398 282.119 72.574 283.091 70.8611C284.109 69.1481 284.619 67.2499 284.619 65.1666C284.619 63.0833 284.109 61.1851 283.091 59.4722C282.119 57.7592 280.799 56.3935 279.132 55.3749C277.466 54.3564 275.614 53.8472 273.577 53.8472C271.54 53.8472 269.688 54.3564 268.021 55.3749C266.355 56.3935 265.012 57.7592 263.994 59.4722C263.021 61.1851 262.535 63.0833 262.535 65.1666C262.535 67.2499 263.021 69.1481 263.994 70.8611C265.012 72.574 266.355 73.9398 268.021 74.9583C269.688 75.9768 271.54 76.4861 273.577 76.4861ZM273.785 41.2083C271.146 41.2083 268.878 40.3055 266.98 38.4999C265.128 36.6944 264.202 34.4722 264.202 31.8333C264.202 29.1944 265.128 26.9722 266.98 25.1666C268.878 23.3611 271.146 22.4583 273.785 22.4583C276.378 22.4583 278.623 23.3611 280.521 25.1666C282.42 26.9722 283.369 29.1944 283.369 31.8333C283.369 34.5185 282.443 36.7638 280.591 38.5694C278.739 40.3287 276.47 41.2083 273.785 41.2083ZM273.785 35.5833C274.85 35.5833 275.73 35.2129 276.424 34.4722C277.165 33.7314 277.535 32.8518 277.535 31.8333C277.535 30.7685 277.165 29.8888 276.424 29.1944C275.683 28.4536 274.804 28.0833 273.785 28.0833C272.767 28.0833 271.887 28.4536 271.146 29.1944C270.406 29.8888 270.035 30.7453 270.035 31.7638C270.035 32.8287 270.406 33.7314 271.146 34.4722C271.887 35.2129 272.767 35.5833 273.785 35.5833Z" fill="black"/>
<path d="M335.537 88.2222L329.356 83.1527L334.078 77.4583C331.208 74.5416 328.916 71.1388 327.203 67.2499C325.537 63.3148 324.703 59.1481 324.703 54.7499C324.703 50.2592 325.56 46.0462 327.273 42.1111C328.986 38.1759 331.347 34.7268 334.356 31.7638C337.412 28.8009 340.93 26.4861 344.912 24.8194C348.893 23.1064 353.175 22.25 357.759 22.25C361.046 22.25 364.217 22.7129 367.273 23.6388C370.328 24.5185 373.129 25.7916 375.675 27.4583L379.981 22.25L386.162 27.3194L381.856 32.4583C384.634 35.3749 386.81 38.7546 388.384 42.5972C390.004 46.3935 390.814 50.4444 390.814 54.7499C390.814 59.2407 389.958 63.4537 388.245 67.3888C386.532 71.324 384.148 74.7731 381.092 77.7361C378.083 80.699 374.587 83.037 370.606 84.7499C366.625 86.4166 362.342 87.2499 357.759 87.2499C354.564 87.2499 351.486 86.8333 348.523 85.9999C345.606 85.1203 342.898 83.9166 340.398 82.3888L335.537 88.2222ZM342.203 67.6666L367.759 36.9722C366.324 36.1388 364.749 35.4907 363.037 35.0277C361.37 34.5648 359.611 34.3333 357.759 34.3333C354.009 34.3333 350.606 35.2592 347.55 37.1111C344.541 38.9166 342.157 41.3703 340.398 44.4722C338.638 47.5277 337.759 50.9536 337.759 54.7499C337.759 57.2036 338.152 59.5416 338.939 61.7638C339.726 63.9398 340.814 65.9074 342.203 67.6666ZM357.759 75.1666C361.509 75.1666 364.888 74.2638 367.898 72.4583C370.907 70.6064 373.291 68.1296 375.05 65.0277C376.856 61.9259 377.759 58.4999 377.759 54.7499C377.759 52.3888 377.388 50.1666 376.648 48.0833C375.953 45.9537 374.981 44.0324 373.731 42.3194L348.314 72.8055C349.75 73.5462 351.254 74.125 352.828 74.5416C354.402 74.9583 356.046 75.1666 357.759 75.1666Z" fill="black"/>
<path d="M397.155 107.667L394.864 98.0138C396.392 98.0138 397.549 97.5972 398.336 96.7638C399.123 95.9768 399.517 94.6805 399.517 92.8749V44.3333H411.6V92.8749C411.6 97.5509 410.234 101.185 407.503 103.778C404.818 106.37 401.368 107.667 397.155 107.667ZM405.489 38.2916C403.683 38.2916 402.155 37.6666 400.905 36.4166C399.655 35.1666 399.03 33.6388 399.03 31.8333C399.03 29.9814 399.655 28.4536 400.905 27.2499C402.155 25.9999 403.683 25.375 405.489 25.375C407.341 25.375 408.868 25.9999 410.072 27.2499C411.322 28.4536 411.947 29.9814 411.947 31.8333C411.947 33.6388 411.322 35.1666 410.072 36.4166C408.868 37.6666 407.341 38.2916 405.489 38.2916Z" fill="black"/>
<path d="M442.251 87.3888C437.575 87.3888 433.455 86.4166 429.89 84.4722C426.325 82.5277 423.547 79.8657 421.557 76.4861C419.566 73.0601 418.57 69.1481 418.57 64.7499C418.57 60.537 419.543 56.8101 421.487 53.5694C423.432 50.2824 426.047 47.6898 429.334 45.7916C432.668 43.8935 436.348 42.9444 440.376 42.9444C444.496 42.9444 448.177 43.8935 451.418 45.7916C454.658 47.6435 457.205 50.1898 459.057 53.4305C460.955 56.6712 461.904 60.3518 461.904 64.4722V68.7083H436.487C435.33 68.7083 434.219 68.6388 433.154 68.4999C432.089 68.3611 431.024 68.199 429.959 68.0138C430.515 70.7916 431.881 73.0601 434.057 74.8194C436.279 76.5324 439.103 77.3888 442.529 77.3888C445.168 77.3888 447.529 76.8564 449.612 75.7916C451.742 74.7268 453.478 73.4074 454.82 71.8333L457.459 82.6666C455.376 84.2407 453.015 85.4212 450.376 86.2083C447.783 86.9953 445.075 87.3888 442.251 87.3888ZM429.682 60.7222C431.996 60.2129 434.265 59.9583 436.487 59.9583H443.848C445.144 59.9583 446.371 60.0046 447.529 60.0972C448.686 60.1898 449.774 60.3518 450.793 60.5833C450.098 58.0833 448.825 56.1157 446.973 54.6805C445.168 53.2453 442.922 52.5277 440.237 52.5277C437.691 52.5277 435.469 53.2685 433.57 54.7499C431.719 56.1851 430.422 58.1759 429.682 60.7222Z" fill="black"/>
<path d="M492.006 87.1111C489.367 87.1111 486.936 86.6481 484.714 85.7222C482.538 84.7962 480.64 83.5231 479.02 81.9027V85.9999H468.603V19.3333H480.686V46.9722C482.214 45.7685 483.927 44.8425 485.825 44.1944C487.723 43.5462 489.784 43.2222 492.006 43.2222C495.895 43.2222 499.413 44.2175 502.561 46.2083C505.709 48.1527 508.209 50.7916 510.061 54.125C511.959 57.4583 512.909 61.1388 512.909 65.1666C512.909 69.1944 511.959 72.8749 510.061 76.2083C508.209 79.4953 505.709 82.1342 502.561 84.1249C499.413 86.1157 495.895 87.1111 492.006 87.1111ZM490.617 76.4861C492.654 76.4861 494.506 75.9768 496.172 74.9583C497.839 73.9398 499.159 72.574 500.131 70.8611C501.149 69.1481 501.659 67.2499 501.659 65.1666C501.659 63.0833 501.149 61.1851 500.131 59.4722C499.159 57.7592 497.839 56.3935 496.172 55.3749C494.506 54.3564 492.654 53.8472 490.617 53.8472C488.58 53.8472 486.728 54.3564 485.061 55.3749C483.395 56.3935 482.052 57.7592 481.034 59.4722C480.061 61.1851 479.575 63.0833 479.575 65.1666C479.575 67.2499 480.061 69.1481 481.034 70.8611C482.052 72.574 483.395 73.9398 485.061 74.9583C486.728 75.9768 488.58 76.4861 490.617 76.4861Z" fill="black"/>
<path d="M520.109 85.9999V19.3333H532.192V85.9999H520.109Z" fill="black"/>
<path d="M541.593 85.9999V44.3333H553.677V85.9999H541.593ZM547.635 38.2916C545.83 38.2916 544.302 37.6666 543.052 36.4166C541.802 35.1666 541.177 33.6388 541.177 31.8333C541.177 29.9814 541.802 28.4536 543.052 27.2499C544.302 25.9999 545.83 25.375 547.635 25.375C549.487 25.375 551.015 25.9999 552.218 27.2499C553.468 28.4536 554.093 29.9814 554.093 31.8333C554.093 33.6388 553.468 35.1666 552.218 36.4166C551.015 37.6666 549.487 38.2916 547.635 38.2916Z" fill="black"/>
<path d="M590.647 85.9999L574.05 63.0833L587.731 44.3333H600.717L587.244 62.0416L604.883 85.9999H590.647ZM562.939 85.9999V19.3333H575.022V85.9999H562.939Z" fill="black"/>
<path d="M637.132 85.9999L620.534 63.0833L634.215 44.3333H647.201L633.729 62.0416L651.368 85.9999H637.132ZM609.423 85.9999V19.3333H621.507V85.9999H609.423Z" fill="black"/>
<path d="M674.771 87.3888C670.095 87.3888 665.974 86.4166 662.409 84.4722C658.845 82.5277 656.067 79.8657 654.076 76.4861C652.085 73.0601 651.09 69.1481 651.09 64.7499C651.09 60.537 652.062 56.8101 654.007 53.5694C655.951 50.2824 658.567 47.6898 661.854 45.7916C665.187 43.8935 668.868 42.9444 672.896 42.9444C677.016 42.9444 680.696 43.8935 683.937 45.7916C687.178 47.6435 689.724 50.1898 691.576 53.4305C693.474 56.6712 694.423 60.3518 694.423 64.4722V68.7083H669.007C667.849 68.7083 666.738 68.6388 665.673 68.4999C664.608 68.3611 663.544 68.199 662.479 68.0138C663.034 70.7916 664.4 73.0601 666.576 74.8194C668.798 76.5324 671.622 77.3888 675.048 77.3888C677.687 77.3888 680.048 76.8564 682.132 75.7916C684.261 74.7268 685.997 73.4074 687.34 71.8333L689.979 82.6666C687.895 84.2407 685.534 85.4212 682.896 86.2083C680.303 86.9953 677.595 87.3888 674.771 87.3888ZM662.201 60.7222C664.516 60.2129 666.784 59.9583 669.007 59.9583H676.368C677.664 59.9583 678.891 60.0046 680.048 60.0972C681.206 60.1898 682.294 60.3518 683.312 60.5833C682.618 58.0833 681.345 56.1157 679.493 54.6805C677.687 53.2453 675.442 52.5277 672.757 52.5277C670.21 52.5277 667.988 53.2685 666.09 54.7499C664.238 56.1851 662.942 58.1759 662.201 60.7222Z" fill="black"/>
<path d="M379 54.9999C379 66.5979 369.598 75.9999 358 75.9999C346.402 75.9999 337 66.5979 337 54.9999C337 43.402 346.402 33.9999 358 33.9999C369.598 33.9999 379 43.402 379 54.9999Z" fill="white"/>
<path d="M371 54.4999C371 61.4035 365.404 66.9999 358.5 66.9999C351.597 66.9999 346 61.4035 346 54.4999C346 47.5964 351.597 41.9999 358.5 41.9999C365.404 41.9999 371 47.5964 371 54.4999Z" fill="black"/>
<path d="M370 46.4999C370 49.5375 367.538 51.9999 364.5 51.9999C361.463 51.9999 359 49.5375 359 46.4999C359 43.4624 361.463 40.9999 364.5 40.9999C367.538 40.9999 370 43.4624 370 46.4999Z" fill="white"/>
</svg>
