<svg width="695" height="157" viewBox="0 0 695 157" fill="none" xmlns="http://www.w3.org/2000/svg">
<path d="M47.0312 136.156C47.0312 133.677 46.8958 131.854 46.625 130.688C46.7917 130.375 46.5417 130.219 45.875 130.219C45.1667 130.219 44.25 130.396 43.125 130.75C42 131.104 41.0833 131.458 40.375 131.812C38.6875 132.625 37.75 133.417 37.5625 134.188V142.688H35.4688C35.1979 141.979 35.0625 139.99 35.0625 136.719C35.0625 133.802 35.1146 131.656 35.2188 130.281C35.3438 128.906 35.4375 128.125 35.5 127.938C36.0417 127.583 36.4792 127.406 36.8125 127.406C37.3333 127.406 37.5938 128.021 37.5938 129.25C37.5938 129.729 37.5625 130.198 37.5 130.656C37.4583 131.094 37.4375 131.396 37.4375 131.562C40.8125 129.083 43.4271 127.844 45.2812 127.844C47.3854 127.844 48.5833 129.542 48.875 132.938C49 134.125 49.0625 135.771 49.0625 137.875L49.0312 140.344C49.0312 141.26 49.0521 142.146 49.0938 143C48.8854 143.125 48.7188 143.188 48.5938 143.188C48.5312 143.167 48.3958 143.135 48.1875 143.094C47.9792 143.052 47.7083 143.021 47.375 143C47.1667 142.167 47.0521 141.323 47.0312 140.469C47.0104 139.594 47 138.792 47 138.062L47.0312 136.156Z" fill="black"/>
<path d="M63.125 137.812C61.5625 140.271 59.4792 141.792 56.875 142.375C56.2708 142.5 55.7188 142.562 55.2188 142.562C54.7396 142.562 54.3333 142.562 54 142.562C53.6875 142.542 53.3333 142.49 52.9375 142.406C52.5417 142.323 52.1771 142.188 51.8438 142C51.0729 141.562 50.6875 140.948 50.6875 140.156C50.6042 139.781 50.5625 139.365 50.5625 138.906C50.5625 138.427 50.6667 137.802 50.875 137.031C51.0833 136.26 51.4583 135.427 52 134.531C52.5625 133.635 53.2396 132.812 54.0312 132.062C55.6771 130.479 57.4583 129.458 59.375 129C59.9375 128.875 60.4479 128.812 60.9062 128.812C61.3854 128.812 61.8125 128.844 62.1875 128.906C63.3958 128.906 64.2083 129.729 64.625 131.375C64.8958 132.417 65.0521 133.875 65.0938 135.75C65.1562 137.604 65.2083 139.042 65.25 140.062C65.3125 141.062 65.4479 141.979 65.6562 142.812H63.8125C63.7292 142.25 63.6667 141.75 63.625 141.312C63.5833 140.875 63.5417 140.469 63.5 140.094C63.3958 139.219 63.2708 138.458 63.125 137.812ZM63 132.969C63 131.76 62.4062 131.156 61.2188 131.156C61.0729 131.135 60.9271 131.125 60.7812 131.125C59.2604 131.125 57.6562 131.854 55.9688 133.312C55.1771 133.979 54.5 134.729 53.9375 135.562C53.1042 136.75 52.6875 137.812 52.6875 138.75C52.6875 139.979 53.3958 140.708 54.8125 140.938C56.6875 140.896 58.4792 140.042 60.1875 138.375C60.9167 137.646 61.5208 136.854 62 136C62.6667 134.854 63 133.844 63 132.969ZM56.9688 130.656C56.5521 130.344 56.25 130.031 56.0625 129.719C55.875 129.406 55.7812 128.979 55.7812 128.438C55.7812 127.875 55.9062 127.385 56.1562 126.969C56.5729 126.281 57.1979 125.938 58.0312 125.938C58.5729 125.938 59.0833 126.062 59.5625 126.312C60.5417 126.833 61.0729 127.573 61.1562 128.531C61.1562 129.573 60.9375 130.271 60.5 130.625C60.0625 130.958 59.4271 131.125 58.5938 131.125C57.9479 131.125 57.4062 130.969 56.9688 130.656ZM59.6875 128C59.2292 127.521 58.7188 127.281 58.1562 127.281C57.5104 127.281 57.125 127.594 57 128.219C57 128.281 57 128.417 57 128.625C57 128.812 57.125 129.104 57.375 129.5C57.8125 129.854 58.2083 130.031 58.5625 130.031C59.2917 130.031 59.7292 129.719 59.875 129.094C59.875 128.99 59.875 128.854 59.875 128.688C59.875 128.521 59.8125 128.292 59.6875 128Z" fill="black"/>
<path d="M82.4688 131.594C81.5938 130.969 80.4688 130.656 79.0938 130.656C77.8021 130.656 76.6042 130.896 75.5 131.375C73.4167 132.25 71.9896 133.375 71.2188 134.75C70.8854 135.375 70.7188 136.042 70.7188 136.75C70.7188 136.875 70.7188 137.229 70.7188 137.812C70.7188 138.375 70.8229 139.146 71.0312 140.125C71.2396 141.083 71.3438 142.062 71.3438 143.062C70.9062 143.083 70.5521 143.135 70.2812 143.219C70.0104 143.302 69.7812 143.344 69.5938 143.344C69.4062 143.344 69.2396 143.26 69.0938 143.094C68.9688 142.927 68.8229 142.604 68.6562 142.125C68.6354 142 68.5938 141.646 68.5312 141.062C68.4688 140.479 68.3854 139.771 68.2812 138.938C68.1979 138.104 68.0938 137.198 67.9688 136.219C67.8646 135.219 67.7604 134.24 67.6562 133.281C67.4271 131.198 67.25 129.667 67.125 128.688C67.125 128.188 67.4896 127.938 68.2188 127.938C68.6562 127.938 69 128.125 69.25 128.5C69.5 128.854 69.6979 129.271 69.8438 129.75C69.9896 130.208 70.0833 130.667 70.125 131.125C70.1875 131.583 70.2396 131.906 70.2812 132.094C73.0312 129.635 76.4479 128.406 80.5312 128.406C80.9896 128.406 81.4688 128.417 81.9688 128.438C82.0938 128.417 82.25 128.406 82.4375 128.406C82.625 128.406 82.8125 128.531 83 128.781C83.2292 129.073 83.3438 129.427 83.3438 129.844C83.3438 130.885 83.0521 131.469 82.4688 131.594Z" fill="black"/>
<path d="M112.375 117.906C112.375 119.906 112.312 121.865 112.188 123.781C112.083 125.677 111.979 127.542 111.875 129.375C111.792 131.188 111.75 133.125 111.75 135.188C111.75 137.229 111.896 139.396 112.188 141.688C112.188 142.167 112.094 142.51 111.906 142.719C111.74 142.927 111.448 143.031 111.031 143.031C110.052 143.031 109.562 142.219 109.562 140.594V139.562C106.604 141.771 104.104 142.875 102.062 142.875C101.25 142.875 100.417 142.677 99.5625 142.281C98.7292 141.885 97.9375 141.083 97.1875 139.875C97.0833 139.375 97.0312 138.865 97.0312 138.344C97.0312 137.823 97.125 137.198 97.3125 136.469C97.5208 135.719 97.9271 134.948 98.5312 134.156C99.1562 133.365 99.9062 132.667 100.781 132.062C102.698 130.771 104.771 130.125 107 130.125C107.958 130.125 108.875 130.271 109.75 130.562C109.75 130.188 109.771 129.531 109.812 128.594C109.875 127.656 109.938 126.667 110 125.625C110.125 122.917 110.208 121.323 110.25 120.844C110.292 120.344 110.344 119.927 110.406 119.594C110.49 119.24 110.604 118.938 110.75 118.688C111.062 118.167 111.604 117.906 112.375 117.906ZM99.3125 138.094C99.3125 139.74 99.9062 140.562 101.094 140.562C101.281 140.562 101.49 140.542 101.719 140.5C102.573 140.5 103.625 140.25 104.875 139.75C107.25 138.812 108.698 138 109.219 137.312V133.156C109.219 132.427 108.625 132.062 107.438 132.062C107.292 132.042 107.094 132.031 106.844 132.031C106.615 132.031 106.25 132.083 105.75 132.188C105.25 132.292 104.688 132.479 104.062 132.75C103.438 133.021 102.823 133.354 102.219 133.75C100.948 134.604 100.073 135.604 99.5938 136.75C99.4062 137.188 99.3125 137.635 99.3125 138.094Z" fill="black"/>
<path d="M120.375 140.812C122.208 140.812 124.969 139.979 128.656 138.312C128.885 138.312 129.073 138.396 129.219 138.562C129.365 138.708 129.438 138.885 129.438 139.094C128.604 140.51 127.01 141.615 124.656 142.406C122.302 143.198 120.104 143.333 118.062 142.812C115.75 142.208 114.344 140.906 113.844 138.906C113.802 138.51 113.781 137.979 113.781 137.312C113.781 136.646 113.948 135.771 114.281 134.688C114.635 133.583 115.229 132.542 116.062 131.562C116.896 130.583 117.875 129.812 119 129.25C120.125 128.688 121.323 128.406 122.594 128.406C123.802 128.406 125.156 128.823 126.656 129.656C127.365 130.052 127.927 130.5 128.344 131C128.76 131.5 128.969 132.01 128.969 132.531C128.969 132.677 128.958 132.823 128.938 132.969C128.896 134.24 128.281 135.042 127.094 135.375C126.573 135.521 125.969 135.594 125.281 135.594L120.781 135.406C119.281 135.406 118.135 135.729 117.344 136.375C116.885 136.729 116.562 137.26 116.375 137.969C116.896 139.865 118.229 140.812 120.375 140.812ZM125.938 131.156C125.479 130.823 125 130.583 124.5 130.438C124 130.292 123.583 130.219 123.25 130.219C122.917 130.219 122.375 130.333 121.625 130.562C120.875 130.771 120.208 131.01 119.625 131.281C118.188 131.948 117.469 132.646 117.469 133.375C119.135 133.521 120.385 133.594 121.219 133.594C123.531 133.594 125.094 133.396 125.906 133C126.406 132.792 126.656 132.531 126.656 132.219C126.656 131.844 126.417 131.49 125.938 131.156Z" fill="black"/>
<path d="M136.031 140L136.094 135C136.094 134.208 136.021 133.531 135.875 132.969H131.031L130.969 130.812H135.656V122.75C135.719 122.562 135.844 122.375 136.031 122.188C136.323 121.896 136.562 121.75 136.75 121.75C136.958 121.75 137.135 121.771 137.281 121.812C137.427 121.854 137.583 122 137.75 122.25C138.083 123.625 138.25 125.698 138.25 128.469C138.25 129.156 138.281 129.833 138.344 130.5C139.01 130.417 139.677 130.375 140.344 130.375C140.344 130.375 140.885 130.375 141.969 130.375C142.365 130.375 142.729 130.354 143.062 130.312L142.969 132.562L138.406 132.438L138.562 143.219C138.188 143.385 137.865 143.469 137.594 143.469C136.552 143.469 136.031 142.312 136.031 140Z" fill="black"/>
<path d="M157.625 130.875C157.583 129.75 157.542 128.75 157.5 127.875C157.458 126.979 157.427 126.323 157.406 125.906C157.406 125.469 157.24 124.417 156.906 122.75C157.094 122.5 157.271 122.26 157.438 122.031C157.625 121.802 157.885 121.688 158.219 121.688C158.948 121.688 159.51 124.76 159.906 130.906C160.115 134.469 160.219 138.031 160.219 141.594C160.219 142.552 159.552 143.031 158.219 143.031L157.969 143C157.969 141.917 157.938 140.531 157.875 138.844C157.812 137.156 157.76 135.688 157.719 134.438C157.698 133.188 157.667 132 157.625 130.875Z" fill="black"/>
<path d="M164.906 128.312C165.177 132.208 165.406 136.719 165.594 141.844C165.469 142.49 164.969 142.812 164.094 142.812C163.865 142.812 163.625 142.771 163.375 142.688C163.146 142.583 163 142.448 162.938 142.281V128.312H164.906ZM162 124.062C162 123.333 162.427 122.969 163.281 122.969C163.844 122.969 164.302 123.094 164.656 123.344C164.719 123.573 164.75 123.802 164.75 124.031C164.75 124.24 164.667 124.448 164.5 124.656C164.333 124.865 164.083 124.969 163.75 124.969C163.417 124.969 163.083 124.896 162.75 124.75C162.417 124.583 162.167 124.354 162 124.062Z" fill="black"/>
<path d="M167.5 130.875C167.458 129.75 167.417 128.75 167.375 127.875C167.333 126.979 167.302 126.323 167.281 125.906C167.281 125.469 167.115 124.417 166.781 122.75C166.969 122.5 167.146 122.26 167.312 122.031C167.5 121.802 167.76 121.688 168.094 121.688C168.823 121.688 169.385 124.76 169.781 130.906C169.99 134.469 170.094 138.031 170.094 141.594C170.094 142.552 169.427 143.031 168.094 143.031L167.844 143C167.844 141.917 167.812 140.531 167.75 138.844C167.688 137.156 167.635 135.688 167.594 134.438C167.573 133.188 167.542 132 167.5 130.875Z" fill="black"/>
<path d="M172.531 130.875C172.49 129.75 172.448 128.75 172.406 127.875C172.365 126.979 172.333 126.323 172.312 125.906C172.312 125.469 172.146 124.417 171.812 122.75C172 122.5 172.177 122.26 172.344 122.031C172.531 121.802 172.792 121.688 173.125 121.688C173.854 121.688 174.417 124.76 174.812 130.906C175.021 134.469 175.125 138.031 175.125 141.594C175.125 142.552 174.458 143.031 173.125 143.031L172.875 143C172.875 141.917 172.844 140.531 172.781 138.844C172.719 137.156 172.667 135.688 172.625 134.438C172.604 133.188 172.573 132 172.531 130.875Z" fill="black"/>
<path d="M183.375 140.812C185.208 140.812 187.969 139.979 191.656 138.312C191.885 138.312 192.073 138.396 192.219 138.562C192.365 138.708 192.438 138.885 192.438 139.094C191.604 140.51 190.01 141.615 187.656 142.406C185.302 143.198 183.104 143.333 181.062 142.812C178.75 142.208 177.344 140.906 176.844 138.906C176.802 138.51 176.781 137.979 176.781 137.312C176.781 136.646 176.948 135.771 177.281 134.688C177.635 133.583 178.229 132.542 179.062 131.562C179.896 130.583 180.875 129.812 182 129.25C183.125 128.688 184.323 128.406 185.594 128.406C186.802 128.406 188.156 128.823 189.656 129.656C190.365 130.052 190.927 130.5 191.344 131C191.76 131.5 191.969 132.01 191.969 132.531C191.969 132.677 191.958 132.823 191.938 132.969C191.896 134.24 191.281 135.042 190.094 135.375C189.573 135.521 188.969 135.594 188.281 135.594L183.781 135.406C182.281 135.406 181.135 135.729 180.344 136.375C179.885 136.729 179.562 137.26 179.375 137.969C179.896 139.865 181.229 140.812 183.375 140.812ZM188.938 131.156C188.479 130.823 188 130.583 187.5 130.438C187 130.292 186.583 130.219 186.25 130.219C185.917 130.219 185.375 130.333 184.625 130.562C183.875 130.771 183.208 131.01 182.625 131.281C181.188 131.948 180.469 132.646 180.469 133.375C182.135 133.521 183.385 133.594 184.219 133.594C186.531 133.594 188.094 133.396 188.906 133C189.406 132.792 189.656 132.531 189.656 132.219C189.656 131.844 189.417 131.49 188.938 131.156Z" fill="black"/>
<path d="M216.156 156.375L215.719 156.344C215.094 156.344 214.427 156.385 213.719 156.469H212.531C211.281 156.469 210.302 156.229 209.594 155.75C209.219 155.5 209.031 155.125 209.031 154.625L216.219 154.281C218.427 154.219 219.531 153.031 219.531 150.719C219.531 150.635 219.531 150.49 219.531 150.281C219.531 150.094 219.531 149.667 219.531 149L219.688 138.938C219.688 138.583 219.677 138.292 219.656 138.062C216.281 141.208 213.031 142.781 209.906 142.781C209.635 142.781 209.365 142.771 209.094 142.75C207.698 142.75 207 142.135 207 140.906C207.042 139.948 207.323 138.896 207.844 137.75C208.365 136.583 209.031 135.469 209.844 134.406C210.677 133.323 211.615 132.354 212.656 131.5C214.26 130.188 215.812 129.531 217.312 129.531C219.062 129.531 220.5 130.458 221.625 132.312C221.958 137.271 222.125 140.792 222.125 142.875C222.125 144.958 222.094 146.667 222.031 148C221.969 149.333 221.823 150.552 221.594 151.656C221.385 152.76 221.104 153.635 220.75 154.281C220.396 154.927 219.979 155.396 219.5 155.688C218.708 156.146 217.594 156.375 216.156 156.375ZM218.031 131.812C217.781 131.729 217.427 131.688 216.969 131.688C216.531 131.688 215.958 131.875 215.25 132.25C214.542 132.625 213.865 133.115 213.219 133.719C212.573 134.302 211.969 134.958 211.406 135.688C210.031 137.479 209.344 138.906 209.344 139.969C209.344 140.302 209.438 140.552 209.625 140.719C209.771 140.802 209.948 140.844 210.156 140.844C210.385 140.844 210.708 140.812 211.125 140.75C211.542 140.667 212.104 140.479 212.812 140.188C213.542 139.875 214.292 139.479 215.062 139C215.833 138.521 216.531 137.99 217.156 137.406C218.615 136.073 219.344 134.771 219.344 133.5C219.344 132.729 218.906 132.167 218.031 131.812Z" fill="black"/>
<path d="M224.406 137.062C224.406 134.604 225.469 132.625 227.594 131.125C229.281 129.938 231.312 129.219 233.688 128.969C233.812 128.969 234.104 128.969 234.562 128.969C235.021 128.969 235.635 129.104 236.406 129.375C238.115 129.958 239.281 130.99 239.906 132.469C240.156 133.052 240.281 133.552 240.281 133.969C240.281 134.365 240.271 134.646 240.25 134.812C240.25 137.417 239.26 139.469 237.281 140.969C235.448 142.344 233.156 143.031 230.406 143.031C228.427 143.031 226.927 142.573 225.906 141.656C224.906 140.74 224.406 139.208 224.406 137.062ZM226.562 137.812C226.562 139.104 226.906 139.979 227.594 140.438C228.115 140.771 228.99 140.938 230.219 140.938C231.448 140.938 232.531 140.844 233.469 140.656C234.406 140.469 235.24 140.146 235.969 139.688C237.531 138.688 238.312 137.135 238.312 135.031C238.312 133.781 237.979 132.76 237.312 131.969C236.583 131.115 235.625 130.688 234.438 130.688C233.625 130.833 232.802 130.99 231.969 131.156C231.156 131.323 230.385 131.646 229.656 132.125C228.073 133.146 227.042 135.042 226.562 137.812ZM226.719 144.188C226.385 144.188 226.219 143.917 226.219 143.375V143.125C226.51 142.396 230.125 137.24 237.062 127.656C237.417 127.177 237.615 126.906 237.656 126.844C237.76 126.885 237.812 127 237.812 127.188C237.812 127.375 237.698 127.76 237.469 128.344C237.24 128.927 236.833 129.781 236.25 130.906C235.688 132.01 235 133.219 234.188 134.531C233.375 135.844 232.531 137.135 231.656 138.406C229.635 141.281 227.99 143.208 226.719 144.188Z" fill="black"/>
<path d="M256.969 131.594C256.094 130.969 254.969 130.656 253.594 130.656C252.302 130.656 251.104 130.896 250 131.375C247.917 132.25 246.49 133.375 245.719 134.75C245.385 135.375 245.219 136.042 245.219 136.75C245.219 136.875 245.219 137.229 245.219 137.812C245.219 138.375 245.323 139.146 245.531 140.125C245.74 141.083 245.844 142.062 245.844 143.062C245.406 143.083 245.052 143.135 244.781 143.219C244.51 143.302 244.281 143.344 244.094 143.344C243.906 143.344 243.74 143.26 243.594 143.094C243.469 142.927 243.323 142.604 243.156 142.125C243.135 142 243.094 141.646 243.031 141.062C242.969 140.479 242.885 139.771 242.781 138.938C242.698 138.104 242.594 137.198 242.469 136.219C242.365 135.219 242.26 134.24 242.156 133.281C241.927 131.198 241.75 129.667 241.625 128.688C241.625 128.188 241.99 127.938 242.719 127.938C243.156 127.938 243.5 128.125 243.75 128.5C244 128.854 244.198 129.271 244.344 129.75C244.49 130.208 244.583 130.667 244.625 131.125C244.688 131.583 244.74 131.906 244.781 132.094C247.531 129.635 250.948 128.406 255.031 128.406C255.49 128.406 255.969 128.417 256.469 128.438C256.594 128.417 256.75 128.406 256.938 128.406C257.125 128.406 257.312 128.531 257.5 128.781C257.729 129.073 257.844 129.427 257.844 129.844C257.844 130.885 257.552 131.469 256.969 131.594Z" fill="black"/>
<path d="M286.875 117.906C286.875 119.906 286.812 121.865 286.688 123.781C286.583 125.677 286.479 127.542 286.375 129.375C286.292 131.188 286.25 133.125 286.25 135.188C286.25 137.229 286.396 139.396 286.688 141.688C286.688 142.167 286.594 142.51 286.406 142.719C286.24 142.927 285.948 143.031 285.531 143.031C284.552 143.031 284.062 142.219 284.062 140.594V139.562C281.104 141.771 278.604 142.875 276.562 142.875C275.75 142.875 274.917 142.677 274.062 142.281C273.229 141.885 272.438 141.083 271.688 139.875C271.583 139.375 271.531 138.865 271.531 138.344C271.531 137.823 271.625 137.198 271.812 136.469C272.021 135.719 272.427 134.948 273.031 134.156C273.656 133.365 274.406 132.667 275.281 132.062C277.198 130.771 279.271 130.125 281.5 130.125C282.458 130.125 283.375 130.271 284.25 130.562C284.25 130.188 284.271 129.531 284.312 128.594C284.375 127.656 284.438 126.667 284.5 125.625C284.625 122.917 284.708 121.323 284.75 120.844C284.792 120.344 284.844 119.927 284.906 119.594C284.99 119.24 285.104 118.938 285.25 118.688C285.562 118.167 286.104 117.906 286.875 117.906ZM273.812 138.094C273.812 139.74 274.406 140.562 275.594 140.562C275.781 140.562 275.99 140.542 276.219 140.5C277.073 140.5 278.125 140.25 279.375 139.75C281.75 138.812 283.198 138 283.719 137.312V133.156C283.719 132.427 283.125 132.062 281.938 132.062C281.792 132.042 281.594 132.031 281.344 132.031C281.115 132.031 280.75 132.083 280.25 132.188C279.75 132.292 279.188 132.479 278.562 132.75C277.938 133.021 277.323 133.354 276.719 133.75C275.448 134.604 274.573 135.604 274.094 136.75C273.906 137.188 273.812 137.635 273.812 138.094Z" fill="black"/>
<path d="M294.875 140.812C296.708 140.812 299.469 139.979 303.156 138.312C303.385 138.312 303.573 138.396 303.719 138.562C303.865 138.708 303.938 138.885 303.938 139.094C303.104 140.51 301.51 141.615 299.156 142.406C296.802 143.198 294.604 143.333 292.562 142.812C290.25 142.208 288.844 140.906 288.344 138.906C288.302 138.51 288.281 137.979 288.281 137.312C288.281 136.646 288.448 135.771 288.781 134.688C289.135 133.583 289.729 132.542 290.562 131.562C291.396 130.583 292.375 129.812 293.5 129.25C294.625 128.688 295.823 128.406 297.094 128.406C298.302 128.406 299.656 128.823 301.156 129.656C301.865 130.052 302.427 130.5 302.844 131C303.26 131.5 303.469 132.01 303.469 132.531C303.469 132.677 303.458 132.823 303.438 132.969C303.396 134.24 302.781 135.042 301.594 135.375C301.073 135.521 300.469 135.594 299.781 135.594L295.281 135.406C293.781 135.406 292.635 135.729 291.844 136.375C291.385 136.729 291.062 137.26 290.875 137.969C291.396 139.865 292.729 140.812 294.875 140.812ZM300.438 131.156C299.979 130.823 299.5 130.583 299 130.438C298.5 130.292 298.083 130.219 297.75 130.219C297.417 130.219 296.875 130.333 296.125 130.562C295.375 130.771 294.708 131.01 294.125 131.281C292.688 131.948 291.969 132.646 291.969 133.375C293.635 133.521 294.885 133.594 295.719 133.594C298.031 133.594 299.594 133.396 300.406 133C300.906 132.792 301.156 132.531 301.156 132.219C301.156 131.844 300.917 131.49 300.438 131.156Z" fill="black"/>
<path d="M318 136.156C318 133.677 317.865 131.854 317.594 130.688C317.76 130.375 317.51 130.219 316.844 130.219C316.135 130.219 315.219 130.396 314.094 130.75C312.969 131.104 312.052 131.458 311.344 131.812C309.656 132.625 308.719 133.417 308.531 134.188V142.688H306.438C306.167 141.979 306.031 139.99 306.031 136.719C306.031 133.802 306.083 131.656 306.188 130.281C306.312 128.906 306.406 128.125 306.469 127.938C307.01 127.583 307.448 127.406 307.781 127.406C308.302 127.406 308.562 128.021 308.562 129.25C308.562 129.729 308.531 130.198 308.469 130.656C308.427 131.094 308.406 131.396 308.406 131.562C311.781 129.083 314.396 127.844 316.25 127.844C318.354 127.844 319.552 129.542 319.844 132.938C319.969 134.125 320.031 135.771 320.031 137.875L320 140.344C320 141.26 320.021 142.146 320.062 143C319.854 143.125 319.688 143.188 319.562 143.188C319.5 143.167 319.365 143.135 319.156 143.094C318.948 143.052 318.677 143.021 318.344 143C318.135 142.167 318.021 141.323 318 140.469C317.979 139.594 317.969 138.792 317.969 138.062L318 136.156Z" fill="black"/>
<path d="M345.312 134.938C347.604 134.938 348.75 135.521 348.75 136.688C348.75 137.562 348.115 138.583 346.844 139.75C344.948 141.479 342.396 142.865 339.188 143.906C339.042 143.906 338.875 143.76 338.688 143.469C338.521 143.177 338.385 142.958 338.281 142.812C338.198 142.646 338.135 142.542 338.094 142.5C340.49 141.708 342.458 140.75 344 139.625C345.042 138.875 345.562 138.26 345.562 137.781C345.562 137.302 344.948 137.062 343.719 137.062C342.49 137.062 340.688 137.354 338.312 137.938C337.229 137.896 336.292 137.51 335.5 136.781C334.812 136.135 334.469 135.49 334.469 134.844C334.469 134.177 334.656 133.573 335.031 133.031C335.406 132.469 335.906 131.948 336.531 131.469C337.156 130.99 337.885 130.552 338.719 130.156C340.76 129.177 342.875 128.688 345.062 128.688C345.708 128.688 346.333 128.75 346.938 128.875C347.438 128.875 347.729 129.094 347.812 129.531C347.896 129.969 347.938 130.688 347.938 131.688C346.708 131.125 345.323 130.844 343.781 130.844C341.865 130.844 340.281 131.229 339.031 132C337.74 132.75 337.073 133.729 337.031 134.938C337.031 135.521 337.458 135.812 338.312 135.812L340.594 135.562C342.552 135.146 344.125 134.938 345.312 134.938Z" fill="black"/>
<path d="M355.406 140L355.469 135C355.469 134.208 355.396 133.531 355.25 132.969H350.406L350.344 130.812H355.031V122.75C355.094 122.562 355.219 122.375 355.406 122.188C355.698 121.896 355.938 121.75 356.125 121.75C356.333 121.75 356.51 121.771 356.656 121.812C356.802 121.854 356.958 122 357.125 122.25C357.458 123.625 357.625 125.698 357.625 128.469C357.625 129.156 357.656 129.833 357.719 130.5C358.385 130.417 359.052 130.375 359.719 130.375C359.719 130.375 360.26 130.375 361.344 130.375C361.74 130.375 362.104 130.354 362.438 130.312L362.344 132.562L357.781 132.438L357.938 143.219C357.562 143.385 357.24 143.469 356.969 143.469C355.927 143.469 355.406 142.312 355.406 140Z" fill="black"/>
<path d="M364.406 137.062C364.406 134.604 365.469 132.625 367.594 131.125C369.281 129.938 371.312 129.219 373.688 128.969C373.812 128.969 374.104 128.969 374.562 128.969C375.021 128.969 375.635 129.104 376.406 129.375C378.115 129.958 379.281 130.99 379.906 132.469C380.156 133.052 380.281 133.552 380.281 133.969C380.281 134.365 380.271 134.646 380.25 134.812C380.25 137.417 379.26 139.469 377.281 140.969C375.448 142.344 373.156 143.031 370.406 143.031C368.427 143.031 366.927 142.573 365.906 141.656C364.906 140.74 364.406 139.208 364.406 137.062ZM366.562 137.812C366.562 139.104 366.906 139.979 367.594 140.438C368.115 140.771 368.99 140.938 370.219 140.938C371.448 140.938 372.531 140.844 373.469 140.656C374.406 140.469 375.24 140.146 375.969 139.688C377.531 138.688 378.312 137.135 378.312 135.031C378.312 133.781 377.979 132.76 377.312 131.969C376.583 131.115 375.625 130.688 374.438 130.688C373.625 130.833 372.802 130.99 371.969 131.156C371.156 131.323 370.385 131.646 369.656 132.125C368.073 133.146 367.042 135.042 366.562 137.812Z" fill="black"/>
<path d="M396.969 131.594C396.094 130.969 394.969 130.656 393.594 130.656C392.302 130.656 391.104 130.896 390 131.375C387.917 132.25 386.49 133.375 385.719 134.75C385.385 135.375 385.219 136.042 385.219 136.75C385.219 136.875 385.219 137.229 385.219 137.812C385.219 138.375 385.323 139.146 385.531 140.125C385.74 141.083 385.844 142.062 385.844 143.062C385.406 143.083 385.052 143.135 384.781 143.219C384.51 143.302 384.281 143.344 384.094 143.344C383.906 143.344 383.74 143.26 383.594 143.094C383.469 142.927 383.323 142.604 383.156 142.125C383.135 142 383.094 141.646 383.031 141.062C382.969 140.479 382.885 139.771 382.781 138.938C382.698 138.104 382.594 137.198 382.469 136.219C382.365 135.219 382.26 134.24 382.156 133.281C381.927 131.198 381.75 129.667 381.625 128.688C381.625 128.188 381.99 127.938 382.719 127.938C383.156 127.938 383.5 128.125 383.75 128.5C384 128.854 384.198 129.271 384.344 129.75C384.49 130.208 384.583 130.667 384.625 131.125C384.688 131.583 384.74 131.906 384.781 132.094C387.531 129.635 390.948 128.406 395.031 128.406C395.49 128.406 395.969 128.417 396.469 128.438C396.594 128.417 396.75 128.406 396.938 128.406C397.125 128.406 397.312 128.531 397.5 128.781C397.729 129.073 397.844 129.427 397.844 129.844C397.844 130.885 397.552 131.469 396.969 131.594Z" fill="black"/>
<path d="M405.656 140.812C407.49 140.812 410.25 139.979 413.938 138.312C414.167 138.312 414.354 138.396 414.5 138.562C414.646 138.708 414.719 138.885 414.719 139.094C413.885 140.51 412.292 141.615 409.938 142.406C407.583 143.198 405.385 143.333 403.344 142.812C401.031 142.208 399.625 140.906 399.125 138.906C399.083 138.51 399.062 137.979 399.062 137.312C399.062 136.646 399.229 135.771 399.562 134.688C399.917 133.583 400.51 132.542 401.344 131.562C402.177 130.583 403.156 129.812 404.281 129.25C405.406 128.688 406.604 128.406 407.875 128.406C409.083 128.406 410.438 128.823 411.938 129.656C412.646 130.052 413.208 130.5 413.625 131C414.042 131.5 414.25 132.01 414.25 132.531C414.25 132.677 414.24 132.823 414.219 132.969C414.177 134.24 413.562 135.042 412.375 135.375C411.854 135.521 411.25 135.594 410.562 135.594L406.062 135.406C404.562 135.406 403.417 135.729 402.625 136.375C402.167 136.729 401.844 137.26 401.656 137.969C402.177 139.865 403.51 140.812 405.656 140.812ZM411.219 131.156C410.76 130.823 410.281 130.583 409.781 130.438C409.281 130.292 408.865 130.219 408.531 130.219C408.198 130.219 407.656 130.333 406.906 130.562C406.156 130.771 405.49 131.01 404.906 131.281C403.469 131.948 402.75 132.646 402.75 133.375C404.417 133.521 405.667 133.594 406.5 133.594C408.812 133.594 410.375 133.396 411.188 133C411.688 132.792 411.938 132.531 411.938 132.219C411.938 131.844 411.698 131.49 411.219 131.156Z" fill="black"/>
<path d="M447.344 132.562C447.448 132.562 447.5 132.844 447.5 133.406C447.5 133.969 447.521 134.354 447.562 134.562L436.844 135.875L437.406 142.812L434.875 142.688C434.875 140.812 434.667 138.667 434.25 136.25L430.188 137.812C429.917 137.812 429.688 137.656 429.5 137.344C429.167 136.802 429 136.312 429 135.875L433.75 134.188C433.333 130.604 433.125 127.698 433.125 125.469C433.125 123.219 433.312 121.469 433.688 120.219C434.062 118.969 434.604 118.135 435.312 117.719C436.042 117.281 436.812 117.062 437.625 117.062C438.438 117.062 439.26 117.24 440.094 117.594C440.948 117.948 441.76 118.396 442.531 118.938C443.302 119.479 443.958 120.094 444.5 120.781C445.042 121.448 445.312 122.104 445.312 122.75C445.312 123.25 445.26 123.604 445.156 123.812C444.323 122.646 443.312 121.604 442.125 120.688C440.708 119.604 439.375 119.062 438.125 119.062C436.938 119.062 436.146 119.906 435.75 121.594C435.562 122.469 435.469 123.708 435.469 125.312C435.469 126.896 435.51 128.354 435.594 129.688C435.677 131 435.927 132.323 436.344 133.656C437.635 133.656 439.083 133.542 440.688 133.312C443.771 132.833 445.99 132.583 447.344 132.562Z" fill="black"/>
<path d="M449.188 137.062C449.188 134.604 450.25 132.625 452.375 131.125C454.062 129.938 456.094 129.219 458.469 128.969C458.594 128.969 458.885 128.969 459.344 128.969C459.802 128.969 460.417 129.104 461.188 129.375C462.896 129.958 464.062 130.99 464.688 132.469C464.938 133.052 465.062 133.552 465.062 133.969C465.062 134.365 465.052 134.646 465.031 134.812C465.031 137.417 464.042 139.469 462.062 140.969C460.229 142.344 457.938 143.031 455.188 143.031C453.208 143.031 451.708 142.573 450.688 141.656C449.688 140.74 449.188 139.208 449.188 137.062ZM451.344 137.812C451.344 139.104 451.688 139.979 452.375 140.438C452.896 140.771 453.771 140.938 455 140.938C456.229 140.938 457.312 140.844 458.25 140.656C459.188 140.469 460.021 140.146 460.75 139.688C462.312 138.688 463.094 137.135 463.094 135.031C463.094 133.781 462.76 132.76 462.094 131.969C461.365 131.115 460.406 130.688 459.219 130.688C458.406 130.833 457.583 130.99 456.75 131.156C455.938 131.323 455.167 131.646 454.438 132.125C452.854 133.146 451.823 135.042 451.344 137.812Z" fill="black"/>
<path d="M481.75 131.594C480.875 130.969 479.75 130.656 478.375 130.656C477.083 130.656 475.885 130.896 474.781 131.375C472.698 132.25 471.271 133.375 470.5 134.75C470.167 135.375 470 136.042 470 136.75C470 136.875 470 137.229 470 137.812C470 138.375 470.104 139.146 470.312 140.125C470.521 141.083 470.625 142.062 470.625 143.062C470.188 143.083 469.833 143.135 469.562 143.219C469.292 143.302 469.062 143.344 468.875 143.344C468.688 143.344 468.521 143.26 468.375 143.094C468.25 142.927 468.104 142.604 467.938 142.125C467.917 142 467.875 141.646 467.812 141.062C467.75 140.479 467.667 139.771 467.562 138.938C467.479 138.104 467.375 137.198 467.25 136.219C467.146 135.219 467.042 134.24 466.938 133.281C466.708 131.198 466.531 129.667 466.406 128.688C466.406 128.188 466.771 127.938 467.5 127.938C467.938 127.938 468.281 128.125 468.531 128.5C468.781 128.854 468.979 129.271 469.125 129.75C469.271 130.208 469.365 130.667 469.406 131.125C469.469 131.583 469.521 131.906 469.562 132.094C472.312 129.635 475.729 128.406 479.812 128.406C480.271 128.406 480.75 128.417 481.25 128.438C481.375 128.417 481.531 128.406 481.719 128.406C481.906 128.406 482.094 128.531 482.281 128.781C482.51 129.073 482.625 129.427 482.625 129.844C482.625 130.885 482.333 131.469 481.75 131.594Z" fill="black"/>
<path d="M494.75 134.938C497.042 134.938 498.188 135.521 498.188 136.688C498.188 137.562 497.552 138.583 496.281 139.75C494.385 141.479 491.833 142.865 488.625 143.906C488.479 143.906 488.312 143.76 488.125 143.469C487.958 143.177 487.823 142.958 487.719 142.812C487.635 142.646 487.573 142.542 487.531 142.5C489.927 141.708 491.896 140.75 493.438 139.625C494.479 138.875 495 138.26 495 137.781C495 137.302 494.385 137.062 493.156 137.062C491.927 137.062 490.125 137.354 487.75 137.938C486.667 137.896 485.729 137.51 484.938 136.781C484.25 136.135 483.906 135.49 483.906 134.844C483.906 134.177 484.094 133.573 484.469 133.031C484.844 132.469 485.344 131.948 485.969 131.469C486.594 130.99 487.323 130.552 488.156 130.156C490.198 129.177 492.312 128.688 494.5 128.688C495.146 128.688 495.771 128.75 496.375 128.875C496.875 128.875 497.167 129.094 497.25 129.531C497.333 129.969 497.375 130.688 497.375 131.688C496.146 131.125 494.76 130.844 493.219 130.844C491.302 130.844 489.719 131.229 488.469 132C487.177 132.75 486.51 133.729 486.469 134.938C486.469 135.521 486.896 135.812 487.75 135.812L490.031 135.562C491.99 135.146 493.562 134.938 494.75 134.938Z" fill="black"/>
<path d="M503.219 137.312L503.375 140.031C503.375 141.698 502.979 142.708 502.188 143.062C502.021 143.125 501.823 143.156 501.594 143.156C501.365 143.156 501.094 143.104 500.781 143L500.812 131.312C500.812 129.625 500.708 127.938 500.5 126.25C500.312 124.542 500.219 122.844 500.219 121.156C500.219 120.49 500.573 120.156 501.281 120.156H501.531C501.677 120.156 501.771 120.167 501.812 120.188C502.125 121.479 502.333 123.042 502.438 124.875C502.667 128.938 502.875 131.667 503.062 133.062C503.417 132.875 504.208 132.344 505.438 131.469C506.667 130.594 507.656 129.896 508.406 129.375C509.156 128.833 509.865 128.333 510.531 127.875C512.094 126.854 513.073 126.344 513.469 126.344C513.802 126.344 514.062 126.542 514.25 126.938C513.208 128.25 511.531 129.708 509.219 131.312C508.281 131.958 507.344 132.604 506.406 133.25C505.49 133.875 504.646 134.531 503.875 135.219C505.271 135.594 506.594 135.99 507.844 136.406C509.094 136.802 510.302 137.167 511.469 137.5C514.156 138.292 516.469 138.74 518.406 138.844C518.406 139.406 518.354 139.771 518.25 139.938C518.062 140.229 517.677 140.396 517.094 140.438H516.844C515.573 140.083 513.885 139.688 511.781 139.25C507.635 138.396 504.781 137.75 503.219 137.312Z" fill="black"/>
<path d="M526.156 140.812C527.99 140.812 530.75 139.979 534.438 138.312C534.667 138.312 534.854 138.396 535 138.562C535.146 138.708 535.219 138.885 535.219 139.094C534.385 140.51 532.792 141.615 530.438 142.406C528.083 143.198 525.885 143.333 523.844 142.812C521.531 142.208 520.125 140.906 519.625 138.906C519.583 138.51 519.562 137.979 519.562 137.312C519.562 136.646 519.729 135.771 520.062 134.688C520.417 133.583 521.01 132.542 521.844 131.562C522.677 130.583 523.656 129.812 524.781 129.25C525.906 128.688 527.104 128.406 528.375 128.406C529.583 128.406 530.938 128.823 532.438 129.656C533.146 130.052 533.708 130.5 534.125 131C534.542 131.5 534.75 132.01 534.75 132.531C534.75 132.677 534.74 132.823 534.719 132.969C534.677 134.24 534.062 135.042 532.875 135.375C532.354 135.521 531.75 135.594 531.062 135.594L526.562 135.406C525.062 135.406 523.917 135.729 523.125 136.375C522.667 136.729 522.344 137.26 522.156 137.969C522.677 139.865 524.01 140.812 526.156 140.812ZM531.719 131.156C531.26 130.823 530.781 130.583 530.281 130.438C529.781 130.292 529.365 130.219 529.031 130.219C528.698 130.219 528.156 130.333 527.406 130.562C526.656 130.771 525.99 131.01 525.406 131.281C523.969 131.948 523.25 132.646 523.25 133.375C524.917 133.521 526.167 133.594 527 133.594C529.312 133.594 530.875 133.396 531.688 133C532.188 132.792 532.438 132.531 532.438 132.219C532.438 131.844 532.198 131.49 531.719 131.156Z" fill="black"/>
<path d="M537.656 130.875C537.615 129.75 537.573 128.75 537.531 127.875C537.49 126.979 537.458 126.323 537.438 125.906C537.438 125.469 537.271 124.417 536.938 122.75C537.125 122.5 537.302 122.26 537.469 122.031C537.656 121.802 537.917 121.688 538.25 121.688C538.979 121.688 539.542 124.76 539.938 130.906C540.146 134.469 540.25 138.031 540.25 141.594C540.25 142.552 539.583 143.031 538.25 143.031L538 143C538 141.917 537.969 140.531 537.906 138.844C537.844 137.156 537.792 135.688 537.75 134.438C537.729 133.188 537.698 132 537.656 130.875Z" fill="black"/>
<path d="M1 134H21V136H1V134Z" fill="black"/>
<path d="M343.566 0L337.123 2.02412L342.197 18.1835L348.64 16.1594L343.566 0Z" fill="#3FA3FF"/>
<path d="M327.945 8.68498L322.643 12.8725L332.058 24.8485L337.36 20.661L327.945 8.68498Z" fill="#3FA3FF"/>
<path d="M317.096 20.4644L313 25.8436L323.743 34.0756L327.839 28.6964L317.096 20.4644Z" fill="#3FA3FF"/>
<path d="M362.036 0.66272L355.292 0.259592L354.414 15.4695L361.157 15.8726L362.036 0.66272Z" fill="#3FA3FF"/>
<path d="M378.045 6.58165L371.682 4.29707L367.147 17.0498L373.51 19.3344L378.045 6.58165Z" fill="#3FA3FF"/>
<path d="M0.666748 85.9999V23.4999H21.9167C26.9167 23.4999 31.4538 24.3101 35.5279 25.9305C39.6482 27.5509 43.1899 29.7962 46.1529 32.6666C49.1621 35.4907 51.4769 38.8009 53.0973 42.5972C54.7177 46.3935 55.5279 50.4444 55.5279 54.7499C55.5279 59.0555 54.7177 63.1064 53.0973 66.9027C51.4769 70.699 49.1621 74.0324 46.1529 76.9027C43.1899 79.7268 39.6482 81.949 35.5279 83.5694C31.4538 85.1898 26.9167 85.9999 21.9167 85.9999H0.666748ZM12.7501 74.7499H20.8056C24.3242 74.7499 27.426 74.2407 30.1112 73.2222C32.7964 72.1574 35.0417 70.7222 36.8473 68.9166C38.6992 67.0648 40.088 64.9351 41.014 62.5277C41.9862 60.1203 42.4723 57.5277 42.4723 54.7499C42.4723 51.9722 41.9862 49.3796 41.014 46.9722C40.088 44.5185 38.6992 42.3888 36.8473 40.5833C35.0417 38.7314 32.7964 37.2962 30.1112 36.2777C27.426 35.2592 24.3242 34.75 20.8056 34.75H12.7501V74.7499Z" fill="#3FA3FF"/>
<path d="M85.415 87.3888C80.7391 87.3888 76.6187 86.4166 73.0539 84.4722C69.4891 82.5277 66.7113 79.8657 64.7206 76.4861C62.7298 73.0601 61.7345 69.1481 61.7345 64.7499C61.7345 60.537 62.7067 56.8101 64.6511 53.5694C66.5956 50.2824 69.2113 47.6898 72.4983 45.7916C75.8317 43.8935 79.5122 42.9444 83.54 42.9444C87.6604 42.9444 91.3409 43.8935 94.5817 45.7916C97.8224 47.6435 100.369 50.1898 102.221 53.4305C104.119 56.6712 105.068 60.3518 105.068 64.4722V68.7083H79.6511C78.4937 68.7083 77.3826 68.6388 76.3178 68.4999C75.253 68.3611 74.1882 68.199 73.1233 68.0138C73.6789 70.7916 75.0446 73.0601 77.2206 74.8194C79.4428 76.5324 82.2669 77.3888 85.6928 77.3888C88.3317 77.3888 90.6928 76.8564 92.7761 75.7916C94.9058 74.7268 96.6419 73.4074 97.9845 71.8333L100.623 82.6666C98.54 84.2407 96.1789 85.4212 93.54 86.2083C90.9474 86.9953 88.2391 87.3888 85.415 87.3888ZM72.8456 60.7222C75.1604 60.2129 77.4289 59.9583 79.6511 59.9583H87.0122C88.3085 59.9583 89.5354 60.0046 90.6928 60.0972C91.8502 60.1898 92.9382 60.3518 93.9567 60.5833C93.2622 58.0833 91.9891 56.1157 90.1372 54.6805C88.3317 53.2453 86.0863 52.5277 83.4011 52.5277C80.8548 52.5277 78.6326 53.2685 76.7345 54.7499C74.8826 56.1851 73.5863 58.1759 72.8456 60.7222Z" fill="#3FA3FF"/>
<path d="M150.693 87.3888C146.896 87.3888 143.285 86.6944 139.859 85.3055C136.48 83.8703 133.771 82.1574 131.734 80.1666L135.137 66.2777C136.758 69.1018 139.049 71.4629 142.012 73.3611C144.975 75.2129 148.008 76.1388 151.109 76.1388C153.656 76.1388 155.646 75.4444 157.082 74.0555C158.563 72.6666 159.304 70.9768 159.304 68.9861C159.304 67.3657 158.91 66.0231 158.123 64.9583C157.383 63.8935 156.48 63.0138 155.415 62.3194C154.396 61.6249 153.494 61.0925 152.707 60.7222L145.346 57.0416C143.216 55.9768 141.179 54.7268 139.234 53.2916C137.29 51.8101 135.693 49.9814 134.443 47.8055C133.239 45.6296 132.637 42.9444 132.637 39.7499C132.637 36.2314 133.424 33.1527 134.998 30.5138C136.619 27.8749 138.887 25.8148 141.804 24.3333C144.721 22.8518 148.146 22.1111 152.082 22.1111C155.785 22.1111 159.072 22.7129 161.943 23.9166C164.859 25.074 167.221 26.324 169.026 27.6666L165.832 41.2083C163.98 38.8009 161.758 36.8796 159.165 35.4444C156.619 33.9629 154.072 33.2222 151.526 33.2222C149.258 33.2222 147.498 33.8009 146.248 34.9583C145.045 36.1157 144.443 37.5509 144.443 39.2638C144.443 40.3287 144.674 41.2777 145.137 42.1111C145.646 42.9444 146.364 43.6851 147.29 44.3333C148.216 44.9814 149.304 45.6296 150.554 46.2777L157.984 49.9583C159.234 50.5601 160.6 51.3472 162.082 52.3194C163.563 53.2453 164.998 54.4259 166.387 55.8611C167.776 57.2962 168.91 59.0324 169.79 61.0694C170.67 63.0601 171.109 65.4444 171.109 68.2222C171.109 71.8333 170.276 75.0972 168.609 78.0138C166.943 80.8842 164.582 83.1759 161.526 84.8888C158.517 86.5555 154.906 87.3888 150.693 87.3888Z" fill="#3FA3FF"/>
<path d="M178.369 85.9999V44.3333H189.202V48.9166C190.683 46.9722 192.512 45.4907 194.688 44.4722C196.91 43.4537 199.225 42.9444 201.632 42.9444C204.086 42.9444 206.401 43.4537 208.577 44.4722C210.753 45.4907 212.582 46.9722 214.063 48.9166C215.683 46.9722 217.697 45.4907 220.105 44.4722C222.512 43.4537 225.128 42.9444 227.952 42.9444C230.915 42.9444 233.693 43.6388 236.285 45.0277C238.878 46.3703 240.984 48.3611 242.605 51C244.225 53.5925 245.035 56.7638 245.035 60.5138V85.9999H232.952V62.2499C232.952 60.0277 232.304 58.0601 231.007 56.3472C229.711 54.6342 227.836 53.7777 225.382 53.7777C224.086 53.7777 222.836 54.1018 221.632 54.7499C220.475 55.3518 219.526 56.2777 218.785 57.5277C218.091 58.7314 217.744 60.2592 217.744 62.1111V85.9999H205.66V62.2499C205.66 60.7685 205.359 59.3796 204.757 58.0833C204.202 56.787 203.345 55.7453 202.188 54.9583C201.077 54.1712 199.711 53.7777 198.091 53.7777C196.794 53.7777 195.544 54.1018 194.341 54.7499C193.183 55.3518 192.234 56.2777 191.494 57.5277C190.799 58.7314 190.452 60.2592 190.452 62.1111V85.9999H178.369Z" fill="#3FA3FF"/>
<path d="M272.119 87.1111C268.276 87.1111 264.781 86.1157 261.632 84.1249C258.484 82.1342 255.961 79.4953 254.063 76.2083C252.211 72.8749 251.285 69.1944 251.285 65.1666C251.285 61.1388 252.211 57.4583 254.063 54.125C255.961 50.7916 258.484 48.1527 261.632 46.2083C264.781 44.2175 268.276 43.2222 272.119 43.2222C274.804 43.2222 277.257 43.7083 279.48 44.6805C281.702 45.6064 283.6 46.9027 285.174 48.5694V44.3333H295.591V85.9999H285.174V81.7638C283.6 83.4305 281.702 84.7499 279.48 85.7222C277.257 86.6481 274.804 87.1111 272.119 87.1111ZM273.577 76.4861C275.614 76.4861 277.466 75.9768 279.132 74.9583C280.799 73.9398 282.119 72.574 283.091 70.8611C284.109 69.1481 284.619 67.2499 284.619 65.1666C284.619 63.0833 284.109 61.1851 283.091 59.4722C282.119 57.7592 280.799 56.3935 279.132 55.3749C277.466 54.3564 275.614 53.8472 273.577 53.8472C271.54 53.8472 269.688 54.3564 268.021 55.3749C266.355 56.3935 265.012 57.7592 263.994 59.4722C263.021 61.1851 262.535 63.0833 262.535 65.1666C262.535 67.2499 263.021 69.1481 263.994 70.8611C265.012 72.574 266.355 73.9398 268.021 74.9583C269.688 75.9768 271.54 76.4861 273.577 76.4861ZM273.785 41.2083C271.146 41.2083 268.878 40.3055 266.98 38.4999C265.128 36.6944 264.202 34.4722 264.202 31.8333C264.202 29.1944 265.128 26.9722 266.98 25.1666C268.878 23.3611 271.146 22.4583 273.785 22.4583C276.378 22.4583 278.623 23.3611 280.521 25.1666C282.42 26.9722 283.369 29.1944 283.369 31.8333C283.369 34.5185 282.443 36.7638 280.591 38.5694C278.739 40.3287 276.47 41.2083 273.785 41.2083ZM273.785 35.5833C274.85 35.5833 275.73 35.2129 276.424 34.4722C277.165 33.7314 277.535 32.8518 277.535 31.8333C277.535 30.7685 277.165 29.8888 276.424 29.1944C275.683 28.4536 274.804 28.0833 273.785 28.0833C272.767 28.0833 271.887 28.4536 271.146 29.1944C270.406 29.8888 270.035 30.7453 270.035 31.7638C270.035 32.8287 270.406 33.7314 271.146 34.4722C271.887 35.2129 272.767 35.5833 273.785 35.5833Z" fill="#3FA3FF"/>
<path d="M335.537 88.2222L329.356 83.1527L334.078 77.4583C331.208 74.5416 328.916 71.1388 327.203 67.2499C325.537 63.3148 324.703 59.1481 324.703 54.7499C324.703 50.2592 325.56 46.0462 327.273 42.1111C328.986 38.1759 331.347 34.7268 334.356 31.7638C337.412 28.8009 340.93 26.4861 344.912 24.8194C348.893 23.1064 353.175 22.25 357.759 22.25C361.046 22.25 364.217 22.7129 367.273 23.6388C370.328 24.5185 373.129 25.7916 375.675 27.4583L379.981 22.25L386.162 27.3194L381.856 32.4583C384.634 35.3749 386.81 38.7546 388.384 42.5972C390.004 46.3935 390.814 50.4444 390.814 54.7499C390.814 59.2407 389.958 63.4537 388.245 67.3888C386.532 71.324 384.148 74.7731 381.092 77.7361C378.083 80.699 374.587 83.037 370.606 84.7499C366.625 86.4166 362.342 87.2499 357.759 87.2499C354.564 87.2499 351.486 86.8333 348.523 85.9999C345.606 85.1203 342.898 83.9166 340.398 82.3888L335.537 88.2222ZM342.203 67.6666L367.759 36.9722C366.324 36.1388 364.749 35.4907 363.037 35.0277C361.37 34.5648 359.611 34.3333 357.759 34.3333C354.009 34.3333 350.606 35.2592 347.55 37.1111C344.541 38.9166 342.157 41.3703 340.398 44.4722C338.638 47.5277 337.759 50.9536 337.759 54.7499C337.759 57.2036 338.152 59.5416 338.939 61.7638C339.726 63.9398 340.814 65.9074 342.203 67.6666ZM357.759 75.1666C361.509 75.1666 364.888 74.2638 367.898 72.4583C370.907 70.6064 373.291 68.1296 375.05 65.0277C376.856 61.9259 377.759 58.4999 377.759 54.7499C377.759 52.3888 377.388 50.1666 376.648 48.0833C375.953 45.9537 374.981 44.0324 373.731 42.3194L348.314 72.8055C349.75 73.5462 351.254 74.125 352.828 74.5416C354.402 74.9583 356.046 75.1666 357.759 75.1666Z" fill="#3FA3FF"/>
<path d="M397.155 107.667L394.864 98.0138C396.392 98.0138 397.549 97.5972 398.336 96.7638C399.123 95.9768 399.517 94.6805 399.517 92.8749V44.3333H411.6V92.8749C411.6 97.5509 410.234 101.185 407.503 103.778C404.818 106.37 401.368 107.667 397.155 107.667ZM405.489 38.2916C403.683 38.2916 402.155 37.6666 400.905 36.4166C399.655 35.1666 399.03 33.6388 399.03 31.8333C399.03 29.9814 399.655 28.4536 400.905 27.2499C402.155 25.9999 403.683 25.375 405.489 25.375C407.341 25.375 408.868 25.9999 410.072 27.2499C411.322 28.4536 411.947 29.9814 411.947 31.8333C411.947 33.6388 411.322 35.1666 410.072 36.4166C408.868 37.6666 407.341 38.2916 405.489 38.2916Z" fill="#3FA3FF"/>
<path d="M442.251 87.3888C437.575 87.3888 433.455 86.4166 429.89 84.4722C426.325 82.5277 423.547 79.8657 421.557 76.4861C419.566 73.0601 418.57 69.1481 418.57 64.7499C418.57 60.537 419.543 56.8101 421.487 53.5694C423.432 50.2824 426.047 47.6898 429.334 45.7916C432.668 43.8935 436.348 42.9444 440.376 42.9444C444.496 42.9444 448.177 43.8935 451.418 45.7916C454.658 47.6435 457.205 50.1898 459.057 53.4305C460.955 56.6712 461.904 60.3518 461.904 64.4722V68.7083H436.487C435.33 68.7083 434.219 68.6388 433.154 68.4999C432.089 68.3611 431.024 68.199 429.959 68.0138C430.515 70.7916 431.881 73.0601 434.057 74.8194C436.279 76.5324 439.103 77.3888 442.529 77.3888C445.168 77.3888 447.529 76.8564 449.612 75.7916C451.742 74.7268 453.478 73.4074 454.82 71.8333L457.459 82.6666C455.376 84.2407 453.015 85.4212 450.376 86.2083C447.783 86.9953 445.075 87.3888 442.251 87.3888ZM429.682 60.7222C431.996 60.2129 434.265 59.9583 436.487 59.9583H443.848C445.144 59.9583 446.371 60.0046 447.529 60.0972C448.686 60.1898 449.774 60.3518 450.793 60.5833C450.098 58.0833 448.825 56.1157 446.973 54.6805C445.168 53.2453 442.922 52.5277 440.237 52.5277C437.691 52.5277 435.469 53.2685 433.57 54.7499C431.719 56.1851 430.422 58.1759 429.682 60.7222Z" fill="#3FA3FF"/>
<path d="M492.006 87.1111C489.367 87.1111 486.936 86.6481 484.714 85.7222C482.538 84.7962 480.64 83.5231 479.02 81.9027V85.9999H468.603V19.3333H480.686V46.9722C482.214 45.7685 483.927 44.8425 485.825 44.1944C487.723 43.5462 489.784 43.2222 492.006 43.2222C495.895 43.2222 499.413 44.2175 502.561 46.2083C505.709 48.1527 508.209 50.7916 510.061 54.125C511.959 57.4583 512.909 61.1388 512.909 65.1666C512.909 69.1944 511.959 72.8749 510.061 76.2083C508.209 79.4953 505.709 82.1342 502.561 84.1249C499.413 86.1157 495.895 87.1111 492.006 87.1111ZM490.617 76.4861C492.654 76.4861 494.506 75.9768 496.172 74.9583C497.839 73.9398 499.159 72.574 500.131 70.8611C501.149 69.1481 501.659 67.2499 501.659 65.1666C501.659 63.0833 501.149 61.1851 500.131 59.4722C499.159 57.7592 497.839 56.3935 496.172 55.3749C494.506 54.3564 492.654 53.8472 490.617 53.8472C488.58 53.8472 486.728 54.3564 485.061 55.3749C483.395 56.3935 482.052 57.7592 481.034 59.4722C480.061 61.1851 479.575 63.0833 479.575 65.1666C479.575 67.2499 480.061 69.1481 481.034 70.8611C482.052 72.574 483.395 73.9398 485.061 74.9583C486.728 75.9768 488.58 76.4861 490.617 76.4861Z" fill="#3FA3FF"/>
<path d="M520.109 85.9999V19.3333H532.192V85.9999H520.109Z" fill="#3FA3FF"/>
<path d="M541.593 85.9999V44.3333H553.677V85.9999H541.593ZM547.635 38.2916C545.83 38.2916 544.302 37.6666 543.052 36.4166C541.802 35.1666 541.177 33.6388 541.177 31.8333C541.177 29.9814 541.802 28.4536 543.052 27.2499C544.302 25.9999 545.83 25.375 547.635 25.375C549.487 25.375 551.015 25.9999 552.218 27.2499C553.468 28.4536 554.093 29.9814 554.093 31.8333C554.093 33.6388 553.468 35.1666 552.218 36.4166C551.015 37.6666 549.487 38.2916 547.635 38.2916Z" fill="#3FA3FF"/>
<path d="M590.647 85.9999L574.05 63.0833L587.731 44.3333H600.717L587.244 62.0416L604.883 85.9999H590.647ZM562.939 85.9999V19.3333H575.022V85.9999H562.939Z" fill="#3FA3FF"/>
<path d="M637.132 85.9999L620.534 63.0833L634.215 44.3333H647.201L633.729 62.0416L651.368 85.9999H637.132ZM609.423 85.9999V19.3333H621.507V85.9999H609.423Z" fill="#3FA3FF"/>
<path d="M674.771 87.3888C670.095 87.3888 665.974 86.4166 662.409 84.4722C658.845 82.5277 656.067 79.8657 654.076 76.4861C652.085 73.0601 651.09 69.1481 651.09 64.7499C651.09 60.537 652.062 56.8101 654.007 53.5694C655.951 50.2824 658.567 47.6898 661.854 45.7916C665.187 43.8935 668.868 42.9444 672.896 42.9444C677.016 42.9444 680.696 43.8935 683.937 45.7916C687.178 47.6435 689.724 50.1898 691.576 53.4305C693.474 56.6712 694.423 60.3518 694.423 64.4722V68.7083H669.007C667.849 68.7083 666.738 68.6388 665.673 68.4999C664.608 68.3611 663.544 68.199 662.479 68.0138C663.034 70.7916 664.4 73.0601 666.576 74.8194C668.798 76.5324 671.622 77.3888 675.048 77.3888C677.687 77.3888 680.048 76.8564 682.132 75.7916C684.261 74.7268 685.997 73.4074 687.34 71.8333L689.979 82.6666C687.895 84.2407 685.534 85.4212 682.896 86.2083C680.303 86.9953 677.595 87.3888 674.771 87.3888ZM662.201 60.7222C664.516 60.2129 666.784 59.9583 669.007 59.9583H676.368C677.664 59.9583 678.891 60.0046 680.048 60.0972C681.206 60.1898 682.294 60.3518 683.312 60.5833C682.618 58.0833 681.345 56.1157 679.493 54.6805C677.687 53.2453 675.442 52.5277 672.757 52.5277C670.21 52.5277 667.988 53.2685 666.09 54.7499C664.238 56.1851 662.942 58.1759 662.201 60.7222Z" fill="#3FA3FF"/>
<path d="M379 54.9999C379 66.5979 369.598 75.9999 358 75.9999C346.402 75.9999 337 66.5979 337 54.9999C337 43.402 346.402 33.9999 358 33.9999C369.598 33.9999 379 43.402 379 54.9999Z" fill="white"/>
<path d="M371 54.4999C371 61.4035 365.404 66.9999 358.5 66.9999C351.597 66.9999 346 61.4035 346 54.4999C346 47.5964 351.597 41.9999 358.5 41.9999C365.404 41.9999 371 47.5964 371 54.4999Z" fill="black"/>
<path d="M370 46.4999C370 49.5375 367.538 51.9999 364.5 51.9999C361.463 51.9999 359 49.5375 359 46.4999C359 43.4624 361.463 40.9999 364.5 40.9999C367.538 40.9999 370 43.4624 370 46.4999Z" fill="white"/>
</svg>
